<?xml version="1.0" encoding="utf-8"?>
<!-- Generator: Adobe Illustrator 19.2.1, SVG Export Plug-In . SVG Version: 6.00 Build 0)  -->
<svg version="1.1" xmlns="http://www.w3.org/2000/svg" xmlns:xlink="http://www.w3.org/1999/xlink" x="0px" y="0px"
	 viewBox="0 0 537 240" style="enable-background:new 0 0 537 240;" xml:space="preserve">
<style type="text/css">
	.st0{fill:#D1D3D4;}
	.st1{fill:none;stroke:#39B54A;stroke-width:0.1;stroke-miterlimit:10;}
</style>
<g id="Kit">
	<path class="st1" d="M141.9,4.1c0,0,0,0.2-0.2,0.7c-0.1,0.3-0.2,0.5-0.6,1.3c-0.1,0.3-0.2,0.4-0.4,0.9c-0.9,2.2-1.5,3.4-2.3,5.6
		c-1.2,3-1.8,4.5-1.9,6c-0.1,1.2-0.1,2.2,0,3.3c0.1,2,0.5,3.6,0.9,5.5c1,4,1.5,6,2.5,8c1.6,3.1,3.5,5.1,5.1,6.8
		c1.7,1.8,3.2,3,4.8,4.2c7.2,5.7,9.1,7.1,12.7,10c6,5,7.5,6.9,8.3,8.1c1.7,2.4,2.8,4.8,3.7,7.4c5.9,16.6,5.6,31.8,5.6,31.8
		c-0.4,17.2-4.7,33.7-14,43.5c-11.8,12.6-27,9.4-39.1,6.3c-1.4-0.3-2-0.6-14.5-6.4c-29.9-13.9-32.3-15.4-38.9-17.5
		c-11.9-3.8-20.5-6.6-31.6-5c-3,0.4-26.6,4.2-35.4,23.6c-5.2,11.4-2.5,22.4-0.1,31.9c1.2,4.9,5.7,22.1,21.5,35.8
		c9.5,8.2,18.7,11.3,28.6,14.6c15.4,5.1,27.2,5.6,45.8,6.3c6.5,0.2,13.9,0,20.6-1c10.5-1.5,19.3-4.1,21.2-4.9
		c4.8-2.1,7.5-4.5,7.7-4.4c0.6,0.3,1.8,5,11.7,8.1c8.5,2.6,20.4,2.3,26.9,2c12.1-0.5,14.2-1,14.2-1.3c0.1-0.2-6.1-2.5-13.7-7.4
		c-3.2-2-8.1-6.6-11.4-10.5c-2.8-3.3-4.7-6.6-4.8-6.9c-0.1-0.7,7.7-3.8,13.2-9.8c3.9-4.2,6.6-7.8,9-11.4c2.4-3.5,4.6-6.9,6.7-11.8
		c4.6-11,5.9-17.5,6.8-25.9c1.8-17.4-2.4-31.2-6.6-47.4c-3-11.5-4.5-13.8-5.8-17.4c-2.2-5.7-3-7.9-3.8-15.4c-0.2-2-0.8-7.5-0.7-9.9
		c0.1-1.4,0.4-3,0.7-4.6c0.9-5.2,3.1-11.1,5-17.2c2.7-8.2,4.4-11.9,4.7-19.1c0-0.4,0.2-4.2,0.1-5.3c-0.1-1.2-0.1-2.4-0.3-3.5
		c-0.2-1.6-0.6-3.1-1-4.5c-0.6-2.4-0.9-4.2-1.3-5c-0.1-0.2-0.5-0.4-0.6-0.4c-0.3-0.1-0.4-0.4-0.4-0.3c0,0-0.3,1.3-0.2,3.1
		c0.1,2.2,0.5,5-0.4,7.5c-1.4,4.1-5.4,7-8.7,9.8c-2.8,2.4-8.6,5.1-12.5,9.2c-1.1,1.1-2,2.4-2.8,3.9c-0.4,0.8-0.6,1.6-0.9,2.3
		c-0.4,1-0.4,2.2-0.1,2.9c0.2,0.5,0.4,0.6,0.3,0.8c-0.1,0.2-0.2,0.1-0.3,0.2c-0.2,0.3-0.1,0.3-0.3,0.4c-0.6,0.2,0-3.4-1.4-5.9
		c-0.7-1.3-3.7-4.6-6.5-6.7c-3.1-2.3-4.9-0.7-10.6-2.6c-4.3-1.5-7.2-2.4-9.5-4.9C140.7,15.6,142.2,4,141.9,4.1z"/>
</g>
</svg>
